<svg xmlns="http://www.w3.org/2000/svg" viewBox="0 -0.5 32 32" shape-rendering="crispEdges">
<metadata>Made with Pixels to Svg https://codepen.io/shshaw/pen/XbxvNj</metadata>
<path stroke="#000000" d="M14 0h1M16 0h1M12 1h2M11 2h1M21 2h1M6 4h1M24 4h1M4 5h1M27 5h1M2 6h1M30 7h2M0 8h1M31 8h1M0 9h1M31 9h1M0 10h1M31 10h1M0 11h1M31 11h1M0 12h1M31 12h1M0 13h1M0 14h1M0 15h1M28 15h1M0 16h1M0 17h1M31 17h1M0 18h1M0 19h1M28 19h1M0 20h1M20 20h1M27 20h1M31 20h1M0 21h1M26 21h1M31 21h1M0 22h1M24 22h2M31 22h1M0 23h1M22 23h2M31 23h1M3 25h1M29 25h1M4 26h2M9 28h1M22 28h1M20 29h1M12 30h1M14 31h2" />
<path stroke="#020000" d="M15 0h1M18 1h1M9 3h1M29 6h1M1 7h1M31 13h1M31 14h1M31 15h1M31 19h1M2 25h1M6 27h1" />
<path stroke="#0c0003" d="M17 0h1" />
<path stroke="#ffffff" d="M14 1h4M12 2h8M10 3h12M8 4h16M6 5h20M4 6h24M2 7h28M2 8h28M1 9h1M4 9h24M30 9h1M1 10h3M6 10h20M28 10h3M1 11h5M8 11h16M26 11h5M1 12h7M10 12h12M24 12h7M1 13h9M12 13h8M22 13h9M1 14h11M14 14h4M20 14h11M1 15h13M18 15h10M29 15h2M1 16h15M17 16h14M1 17h15M17 17h14M1 18h15M17 18h14M1 19h15M17 19h11M29 19h2M1 20h15M17 20h3M21 20h6M28 20h3M1 21h15M17 21h9M27 21h4M1 22h15M17 22h7M26 22h5M1 23h15M17 23h5M24 23h7M2 24h14M17 24h13M4 25h12M17 25h11M6 26h10M17 26h9M8 27h8M17 27h7M10 28h6M17 28h5M12 29h4M17 29h3M14 30h2M17 30h1" />
<path stroke="#010000" d="M19 1h1M23 3h1M31 16h1M31 18h1M30 24h1M28 25h1" />
<path stroke="#00000b" d="M10 2h1" />
<path stroke="#000001" d="M20 2h1M25 4h1M0 7h1" />
<path stroke="#030002" d="M8 3h1" />
<path stroke="#000100" d="M22 3h1M0 24h2" />
<path stroke="#010100" d="M7 4h1M5 5h1" />
<path stroke="#010003" d="M26 5h1" />
<path stroke="#000102" d="M3 6h1" />
<path stroke="#050202" d="M28 6h1" />
<path stroke="#181818" d="M1 8h1M30 8h1M2 9h2M28 9h2M4 10h2M26 10h2M6 11h2M24 11h2M8 12h2M22 12h2M10 13h2M20 13h2M12 14h2M18 14h2M14 15h4M16 16h1M16 17h1M16 18h1M16 19h1M16 20h1M16 21h1M16 22h1M16 23h1M16 24h1M16 25h1M16 26h1M16 27h1M16 28h1M16 29h1M16 30h1" />
<path stroke="#020100" d="M31 24h1M7 27h1" />
<path stroke="#010103" d="M26 26h1" />
<path stroke="#010102" d="M27 26h1" />
<path stroke="#010001" d="M24 27h1M19 30h1" />
<path stroke="#010101" d="M25 27h1" />
<path stroke="#000004" d="M8 28h1" />
<path stroke="#010104" d="M23 28h1" />
<path stroke="#040004" d="M10 29h1" />
<path stroke="#020001" d="M11 29h1" />
<path stroke="#030000" d="M21 29h1" />
<path stroke="#000002" d="M13 30h1M16 31h1" />
<path stroke="#000103" d="M18 30h1" />
<path stroke="#030005" d="M17 31h1" />
</svg>